<svg width="15" height="14" viewBox="0 0 15 14" fill="none" xmlns="http://www.w3.org/2000/svg">
<path d="M2.05476 0.292894C1.66424 -0.0976312 1.03107 -0.0976312 0.640549 0.292894C0.250025 0.683418 0.250025 1.31658 0.640549 1.70711L5.93344 7L0.640549 12.2929C0.250025 12.6834 0.250025 13.3166 0.640549 13.7071C1.03107 14.0976 1.66424 14.0976 2.05476 13.7071L7.34766 8.41421L12.6405 13.7071C13.0311 14.0976 13.6642 14.0976 14.0548 13.7071C14.4453 13.3166 14.4453 12.6834 14.0548 12.2929L8.76187 7L14.0548 1.70711C14.4453 1.31658 14.4453 0.683419 14.0548 0.292895C13.6642 -0.0976297 13.0311 -0.0976297 12.6405 0.292895L7.34766 5.58579L2.05476 0.292894Z" fill="#6C6C6C"/>
</svg>
