<svg xmlns="http://www.w3.org/2000/svg" width="10" height="10" viewBox="0 0 10 10" fill="none">
  <path d="M6.84859 0.475215C7.13974 0.18401 7.53075 0.0144342 7.94232 0.000879808C8.35389 -0.0126746 8.75521 0.130807 9.06489 0.402225L9.14275 0.475215L9.52502 0.857467C9.81608 1.14857 9.98557 1.53946 9.99912 1.95088C10.0127 2.36231 9.86928 2.76349 9.59801 3.07312L9.52502 3.15098L3.46279 9.21349C3.37707 9.29919 3.27324 9.3646 3.15892 9.40489L3.07132 9.4303L0.663085 9.98611C0.578718 10.0056 0.490905 10.0046 0.407019 9.9831C0.323134 9.96162 0.245625 9.92034 0.181 9.86271C0.116375 9.80508 0.066522 9.73279 0.0356257 9.6519C0.00472948 9.57101 -0.00630756 9.48389 0.00344131 9.39786L0.0142551 9.33676L0.569545 6.92809C0.596977 6.80995 0.650559 6.69946 0.726346 6.60477L0.786363 6.53718L6.84859 0.475215ZM6.46633 2.38648L1.60551 7.24708L1.26163 8.73824L2.75286 8.39384L7.61367 3.53323L6.46633 2.38648ZM8.37821 1.23972C8.28511 1.14663 8.16123 1.09071 8.02983 1.08245C7.89843 1.07418 7.76853 1.11415 7.6645 1.19484L7.61367 1.23972L7.23086 1.62197L8.37821 2.76873L8.76048 2.38648C8.85357 2.29338 8.9095 2.16951 8.91776 2.03811C8.92602 1.90672 8.88606 1.77682 8.80536 1.67279L8.76048 1.62197L8.37821 1.23972Z" fill="#182B49"/>
</svg>