<svg xmlns="http://www.w3.org/2000/svg" width="10" height="11" viewBox="0 0 10 11" fill="none">
  <path fill-rule="evenodd" clip-rule="evenodd" d="M4.375 0.0107422C1.95875 0.0107422 0 1.9695 0 4.38574C0 6.80199 1.95875 8.76074 4.375 8.76074C5.35771 8.76074 6.26474 8.43674 6.99511 7.88973L8.93306 9.82768C9.17714 10.0718 9.57286 10.0718 9.81694 9.82768C10.061 9.58361 10.061 9.18788 9.81694 8.9438L7.87899 7.00585C8.426 6.27549 8.75 5.36845 8.75 4.38574C8.75 1.9695 6.79125 0.0107422 4.375 0.0107422ZM1.25 4.38574C1.25 2.65985 2.64911 1.26074 4.375 1.26074C6.10089 1.26074 7.5 2.65985 7.5 4.38574C7.5 6.11163 6.10089 7.51074 4.375 7.51074C2.64911 7.51074 1.25 6.11163 1.25 4.38574Z" fill="white"/>
</svg>