<svg xmlns="http://www.w3.org/2000/svg" width="14" height="14" viewBox="0 0 14 14" fill="none">
  <path d="M2.6 3.81818H4.4V3.27273C4.4 2.93518 4.5475 2.61146 4.81005 2.37277C5.0726 2.13409 5.4287 2 5.8 2H8.2C8.5713 2 8.9274 2.13409 9.18995 2.37277C9.4525 2.61146 9.6 2.93518 9.6 3.27273V3.81818H11.4C11.5591 3.81818 11.7117 3.87565 11.8243 3.97794C11.9368 4.08023 12 4.21897 12 4.36364C12 4.5083 11.9368 4.64704 11.8243 4.74933C11.7117 4.85162 11.5591 4.90909 11.4 4.90909H11.2V11.0909C11.2 11.332 11.0946 11.5632 10.9071 11.7337C10.7196 11.9042 10.4652 12 10.2 12H3.8C3.53478 12 3.28043 11.9042 3.09289 11.7337C2.90536 11.5632 2.8 11.332 2.8 11.0909V4.90909H2.6C2.44087 4.90909 2.28826 4.85162 2.17574 4.74933C2.06321 4.64704 2 4.5083 2 4.36364C2 4.21897 2.06321 4.08023 2.17574 3.97794C2.28826 3.87565 2.44087 3.81818 2.6 3.81818ZM8.4 3.27273C8.4 3.22451 8.37893 3.17826 8.34142 3.14416C8.30391 3.11006 8.25304 3.09091 8.2 3.09091H5.8C5.74696 3.09091 5.69609 3.11006 5.65858 3.14416C5.62107 3.17826 5.6 3.22451 5.6 3.27273V3.81818H8.4V3.27273ZM4 10.9091H10V4.90909H4V10.9091ZM7.6 6.36364V9.27273C7.6 9.41739 7.66321 9.55613 7.77574 9.65842C7.88826 9.76071 8.04087 9.81818 8.2 9.81818C8.35913 9.81818 8.51174 9.76071 8.62426 9.65842C8.73679 9.55613 8.8 9.41739 8.8 9.27273V6.36364C8.8 6.21897 8.73679 6.08023 8.62426 5.97794C8.51174 5.87565 8.35913 5.81818 8.2 5.81818C8.04087 5.81818 7.88826 5.87565 7.77574 5.97794C7.66321 6.08023 7.6 6.21897 7.6 6.36364ZM5.2 6.36364V9.27273C5.2 9.41739 5.26321 9.55613 5.37574 9.65842C5.48826 9.76071 5.64087 9.81818 5.8 9.81818C5.95913 9.81818 6.11174 9.76071 6.22426 9.65842C6.33679 9.55613 6.4 9.41739 6.4 9.27273V6.36364C6.4 6.21897 6.33679 6.08023 6.22426 5.97794C6.11174 5.87565 5.95913 5.81818 5.8 5.81818C5.64087 5.81818 5.48826 5.87565 5.37574 5.97794C5.26321 6.08023 5.2 6.21897 5.2 6.36364Z" fill="#182B49"/>
</svg>